<svg preserveAspectRatio="none" overflow="visible" style="display: block;" width="16" height="16" viewBox="0 0 16 16" fill="none" xmlns="http://www.w3.org/2000/svg">
<g id="icon/&#229;&#156;&#134;&#229;&#143;&#137;-&#233;&#157;&#162;">
<path id="Union" fill-rule="evenodd" clip-rule="evenodd" d="M1.5 8C1.5 4.41015 4.41015 1.5 8 1.5C11.5899 1.5 14.5 4.41015 14.5 8C14.5 11.5899 11.5899 14.5 8 14.5C4.41015 14.5 1.5 11.5899 1.5 8ZM7.02022 6.31311C6.82496 6.11785 6.50838 6.11785 6.31311 6.31311C6.11785 6.50838 6.11785 6.82496 6.31311 7.02022L7.29289 8L6.31311 8.97978C6.11785 9.17504 6.11785 9.49162 6.31311 9.68689C6.50838 9.88215 6.82496 9.88215 7.02022 9.68689L8 8.70711L8.97978 9.68689C9.17504 9.88215 9.49162 9.88215 9.68689 9.68689C9.88215 9.49162 9.88215 9.17504 9.68689 8.97978L8.70711 8L9.68689 7.02022C9.88215 6.82496 9.88215 6.50838 9.68689 6.31311C9.49162 6.11785 9.17504 6.11785 8.97978 6.31311L8 7.29289L7.02022 6.31311Z" fill="#B7BEC5"/>
</g>
</svg>
